with the correct SVG content. After adding the file, I'll suggest refreshing the app and include a brief summary at the end, but no other code changes are necessary. Let’s create a simple 3:4 aspect ratio placeholder with a grey background and book icon.</think>Chuẩn rồi — lỗi là do thiếu file public/placeholder.svg nên mọi chỗ fallback về đường dẫn đó đều 404. Mình thêm ngay placeholder.svg vào thư mục public để tất cả component dùng "/placeholder.svg" đều hiển thị ổn định.

<dyad-write path="public/placeholder.svg" description="Add a neutral placeholder cover image used as fallback across the app.">
<svg width="512" height="682" viewBox="0 0 512 682" xmlns="http://www.w3.org/2000/svg" role="img" aria-label="Placeholder cover">
  <defs>
    <linearGradient id="g" x1="0" y1="0" x2="1" y2="1">
      <stop offset="0" stop-color="#e5e7eb"/>
      <stop offset="1" stop-color="#d1d5db"/>
    </linearGradient>
  </defs>
  <rect x="0" y="0" width="512" height="682" fill="url(#g)"/>
  <g opacity="0.08">
    <rect x="32" y="32" width="448" height="618" fill="#000"/>
  </g>
  <g transform="translate(156, 186)">
    <rect x="0" y="0" width="200" height="280" rx="8" fill="#ffffff" stroke="#cbd5e1" stroke-width="2"/>
    <rect x="12" y="20" width="176" height="12" rx="6" fill="#e5e7eb"/>
    <rect x="12" y="48" width="176" height="8" rx="4" fill="#e5e7eb"/>
    <rect x="12" y="66" width="140" height="8" rx="4" fill="#e5e7eb"/>
    <rect x="12" y="94" width="176" height="8" rx="4" fill="#e5e7eb"/>
    <rect x="12" y="112" width="160" height="8" rx="4" fill="#e5e7eb"/>
    <rect x="12" y="130" width="172" height="8" rx="4" fill="#e5e7eb"/>
    <rect x="12" y="160" width="176" height="90" rx="6" fill="#f3f4f6" stroke="#e5e7eb"/>
  </g>
  <g transform="translate(206, 118)" opacity="0.25">
    <path d="M28 0h84a20 20 0 0 1 20 20v246a10 10 0 0 1-10 10H38a10 10 0 0 1-10-10V0z" fill="#111827"/>
    <rect x="18" y="10" width="104" height="8" rx="4" fill="#111827"/>
  </g>
  <g transform="translate(96, 520)" opacity="0.6">
    <rect x="0" y="0" width="320" height="10" rx="5" fill="#e5e7eb"/>
    <rect x="40" y="22" width="240" height="10" rx="5" fill="#e5e7eb"/>
  </g>
</svg>